# xmcd
#
# Track frame offsets:
#	150
#	16357
#	28980
#	41606
#	54064
#	64243
#	82026
#	96148
#	111327
#	126475
#	143363
#	159720
#	176229
#	190567
#	206850
#	224184
#
# Disc length: 3206 seconds
#
# Revision: 2
# Processed by: cddbd v1.5.2PL0 Copyright (c) Steve Scherf et al.
# Submitted via: audiograbber 1.83.01
#
DISCID=f00c8410
DTITLE=Legends - LG178
DYEAR=1900
DGENRE=Karaoke
TTITLE0=George Strait - I Cross My Heart
TTITLE1=George Strait - Amarillo By Morning
TTITLE2=George Strait - Chair, The
TTITLE3=George Strait - Honky Tonkville
TTITLE4=George Strait - Honk If You Honkytonk
TTITLE5=George Strait - Run
TTITLE6=George Strait - She'll Leave You With A Smile
TTITLE7=George Strait - Tell Me Something Bad About Tulsa
TTITLE8=George Strait - All My Ex's Live In Texas
TTITLE9=George Strait - Adalida
TTITLE10=George Strait - Cowboys Like Us
TTITLE11=George Strait - Living And Living Well
TTITLE12=George Strait - Love Without End, Amen
TTITLE13=George Strait - Stars On The Water
TTITLE14=George Strait - Designated Drinker
TTITLE15=George Strait - Write This Down
EXTD=
EXTT0=
EXTT1=
EXTT2=
EXTT3=
EXTT4=
EXTT5=
EXTT6=
EXTT7=
EXTT8=
EXTT9=
EXTT10=
EXTT11=
EXTT12=
EXTT13=
EXTT14=
EXTT15=
PLAYORDER=
